<?xml version="1.0" encoding="UTF-8" standalone="no"?>
<!DOCTYPE svg PUBLIC "-//W3C//DTD SVG 1.1//EN" "http://www.w3.org/Graphics/SVG/1.1/DTD/svg11.dtd">
<svg width="100%" height="100%" viewBox="0 0 231 346" version="1.1" xmlns="http://www.w3.org/2000/svg" xmlns:xlink="http://www.w3.org/1999/xlink" xml:space="preserve" xmlns:serif="http://www.serif.com/" style="fill-rule:evenodd;clip-rule:evenodd;stroke-linecap:round;stroke-linejoin:round;stroke-miterlimit:1.5;">
    <g transform="matrix(0.24,0,0,0.24,0,0)">
        <g transform="matrix(1.20995,0,0,0.935001,-130.998,-136.064)">
            <path d="M856.98,194.518C856.98,182.625 849.518,172.969 840.328,172.969L196.419,172.969C187.228,172.969 179.767,182.625 179.767,194.518L179.767,237.616C179.767,249.51 187.228,259.166 196.419,259.166L840.328,259.166C849.518,259.166 856.98,249.51 856.98,237.616L856.98,194.518Z" style="fill:rgb(31,37,43);stroke:black;stroke-width:1.54px;"/>
        </g>
        <g transform="matrix(1.33333,0,0,1.33329,-200.148,-209.312)">
            <path d="M870.861,163.022L150.861,163.022L150.861,1243.02L870.861,1243.02L870.861,163.022ZM317.2,441.526C365.104,333.772 434.067,259.166 533.156,259.166C890.232,259.166 856.101,1228 856.101,1228L210.211,1228C210.211,1228 209.974,1221.28 209.747,1208.97C209.907,1208.97 210.068,1208.97 210.229,1208.97C239.943,1208.97 264.067,1184.85 264.067,1155.13C264.067,1125.42 239.943,1101.3 210.229,1101.3L209.903,1101.3C210.065,1092.66 210.267,1083.67 210.518,1074.34C239.683,1073.71 263.17,1049.83 263.17,1020.51C263.17,992.771 242.139,969.901 215.163,966.99C215.701,958.037 216.285,948.954 216.92,939.762C246.444,939.542 270.346,915.503 270.346,885.926C270.346,859.567 251.362,837.607 226.334,832.984C227.335,823.764 228.392,814.499 229.509,805.201C259.022,804.962 282.905,780.931 282.905,751.366C282.905,727.125 266.85,706.605 244.802,699.868C246.489,690.093 248.256,680.343 250.102,670.641C279.631,670.426 303.538,646.385 303.538,616.805C303.538,595.563 291.209,577.177 273.323,568.421C276.266,557.493 279.342,546.702 282.556,536.079C312.012,535.778 335.832,511.772 335.832,482.245C335.832,465.986 328.609,451.4 317.2,441.526ZM830.31,197.348C830.31,189.008 823.538,182.236 815.198,182.236L230.858,182.236C222.517,182.236 215.746,189.008 215.746,197.348L215.746,227.572C215.746,235.912 222.517,242.683 230.858,242.683L815.198,242.683C823.538,242.683 830.31,235.912 830.31,227.572L830.31,197.348Z" style="fill-opacity:0.95;"/>
        </g>
        <g transform="matrix(1.33329,0,0,1.33329,-201.142,-217.312)">
            <path d="M870.861,163.022L150.861,163.022L150.861,1243.02L870.861,1243.02L870.861,163.022ZM317.2,441.526C365.104,333.772 434.067,259.166 533.156,259.166C890.232,259.166 856.101,1228 856.101,1228L210.211,1228C210.211,1228 209.974,1221.28 209.747,1208.97C209.907,1208.97 210.068,1208.97 210.229,1208.97C239.943,1208.97 264.067,1184.85 264.067,1155.13C264.067,1125.42 239.943,1101.3 210.229,1101.3L209.903,1101.3C210.065,1092.66 210.267,1083.67 210.518,1074.34C239.683,1073.71 263.17,1049.83 263.17,1020.51C263.17,992.771 242.139,969.901 215.163,966.99C215.701,958.037 216.285,948.954 216.92,939.762C246.444,939.542 270.346,915.503 270.346,885.926C270.346,859.567 251.362,837.607 226.334,832.984C227.335,823.764 228.392,814.499 229.509,805.201C259.022,804.962 282.905,780.931 282.905,751.366C282.905,727.125 266.85,706.605 244.802,699.868C246.489,690.093 248.256,680.343 250.102,670.641C279.631,670.426 303.538,646.385 303.538,616.805C303.538,595.563 291.209,577.177 273.323,568.421C276.266,557.493 279.342,546.702 282.556,536.079C312.012,535.778 335.832,511.772 335.832,482.245C335.832,465.986 328.609,451.4 317.2,441.526ZM830.31,197.348C830.31,189.008 823.538,182.236 815.198,182.236L230.858,182.236C222.517,182.236 215.746,189.008 215.746,197.348L215.746,227.572C215.746,235.912 222.517,242.683 230.858,242.683L815.198,242.683C823.538,242.683 830.31,235.912 830.31,227.572L830.31,197.348Z" style="fill:rgb(0,89,170);fill-opacity:0.95;"/>
        </g>
    </g>
</svg>
